<svg id="dog-paw" xmlns="http://www.w3.org/2000/svg" width="18.238" height="21" viewBox="0 0 18.238 21">
  <path id="Path_9" data-name="Path 9" d="M15.291,15.842a6.314,6.314,0,0,1,1.156,2.9A2.128,2.128,0,0,1,14.088,21a3.108,3.108,0,0,1-1.955-.57,2.808,2.808,0,0,0-2.107-.582,2.812,2.812,0,0,0-2.121.59A3.059,3.059,0,0,1,5.964,21a2.128,2.128,0,0,1-2.359-2.258,6.325,6.325,0,0,1,1.157-2.9,22.711,22.711,0,0,1,2.771-4.075,3.518,3.518,0,0,1,2.285-.937h.418a3.424,3.424,0,0,1,2.286.938A27.613,27.613,0,0,1,15.291,15.842ZM6.719,8.977c1.415,0,2.562-2.01,2.562-4.489S8.134,0,6.719,0,4.157,2.01,4.157,4.489,5.3,8.977,6.719,8.977ZM4.263,13.324c1.043-.541,1.281-2.461.531-4.287s-2.2-2.869-3.247-2.328S.267,9.17,1.017,11,3.22,13.865,4.263,13.324Zm8.413-4.347c1.415,0,2.563-2.01,2.563-4.489S14.092,0,12.676,0s-2.562,2.01-2.562,4.489S11.261,8.977,12.676,8.977Zm5.172-2.269c-1.043-.541-2.5.5-3.247,2.328s-.512,3.746.531,4.288,2.5-.5,3.247-2.328S18.891,7.25,17.848,6.709Z" transform="translate(-0.579 0)" fill="#03ebbb"/>
</svg>
