<svg xmlns="http://www.w3.org/2000/svg" xmlns:xlink="http://www.w3.org/1999/xlink" width="98" height="109.5" viewBox="0 0 98 109.5">
  <defs>
    <filter id="Path_33" x="0" y="0" width="98" height="109.5" filterUnits="userSpaceOnUse">
      <feOffset dy="14" input="SourceAlpha"/>
      <feGaussianBlur stdDeviation="1.5" result="blur"/>
      <feFlood flood-opacity="0.031"/>
      <feComposite operator="in" in2="blur"/>
      <feComposite in="SourceGraphic"/>
    </filter>
  </defs>
  <g id="PAw" transform="translate(4.907 -0.041)">
    <g transform="matrix(1, 0, 0, 1, -4.91, 0.04)" filter="url(#Path_33)">
      <g id="Path_33-2" data-name="Path 33" transform="translate(4.5 0)" fill="#03ebbb">
        <path d="M44.5,0A44.5,44.5,0,0,1,89,44.5v2a44.5,44.5,0,0,1-89,0v-2A44.5,44.5,0,0,1,44.5,0Z" stroke="none"/>
        <path d="M 44.5 4 C 39.03076934814453 4 33.72726058959961 5.070259094238281 28.73680114746094 7.181045532226563 C 23.91456604003906 9.220680236816406 19.58290863037109 12.14143371582031 15.86216735839844 15.86216735839844 C 12.14143371582031 19.58290863037109 9.220680236816406 23.91456604003906 7.181045532226563 28.73680114746094 C 5.070259094238281 33.72726058959961 4 39.03076934814453 4 44.5 L 4 46.5 C 4 51.96923065185547 5.070259094238281 57.27273941040039 7.181045532226563 62.26319885253906 C 9.220680236816406 67.08543395996094 12.14143371582031 71.41709136962891 15.86216735839844 75.13783264160156 C 19.58290863037109 78.85856628417969 23.91456604003906 81.77931976318359 28.73680114746094 83.81895446777344 C 33.72726058959961 85.92974090576172 39.03076934814453 87 44.5 87 C 49.96923065185547 87 55.27273941040039 85.92974090576172 60.26319885253906 83.81895446777344 C 65.08543395996094 81.77931976318359 69.41709136962891 78.85856628417969 73.13783264160156 75.13783264160156 C 76.85856628417969 71.41709136962891 79.77931976318359 67.08543395996094 81.81895446777344 62.26319885253906 C 83.92974090576172 57.27273941040039 85 51.96923065185547 85 46.5 L 85 44.5 C 85 39.03076934814453 83.92974090576172 33.72726058959961 81.81895446777344 28.73680114746094 C 79.77931976318359 23.91456604003906 76.85856628417969 19.58290863037109 73.13783264160156 15.86216735839844 C 69.41709136962891 12.14143371582031 65.08543395996094 9.220680236816406 60.26319885253906 7.181045532226563 C 55.27273941040039 5.070259094238281 49.96923065185547 4 44.5 4 M 44.5 0 C 69.07667541503906 0 89 19.92332458496094 89 44.5 L 89 46.5 C 89 71.07667541503906 69.07667541503906 91 44.5 91 C 19.92332458496094 91 0 71.07667541503906 0 46.5 L 0 44.5 C 0 19.92332458496094 19.92332458496094 0 44.5 0 Z" stroke="none" fill="rgba(168,251,234,0.44)"/>
      </g>
    </g>
    <g id="dog-paw" transform="translate(20.659 21.181)">
      <path id="Path_9" data-name="Path 9" d="M38.9,36.709c2.047,3.222,3.011,4.933,3.011,6.717,0,3.524-2.617,5.233-6.144,5.233a8.864,8.864,0,0,1-5.093-1.321s-1.643-1.5-5.488-1.349c-3.881-.153-5.525,1.368-5.525,1.368a8.723,8.723,0,0,1-5.055,1.3c-3.526,0-6.146-1.707-6.146-5.233,0-1.784.967-3.493,3.013-6.717,0,0,3.867-6.421,7.218-9.442A9.873,9.873,0,0,1,24.643,25.1h1.089s3.685-.009,5.954,2.173C34.933,30.4,38.9,36.71,38.9,36.709ZM16.572,20.8c3.687,0,6.675-4.657,6.675-10.4S20.259,0,16.572,0,9.9,4.657,9.9,10.4,12.886,20.8,16.572,20.8Zm-6.4,10.073c2.717-1.254,3.337-5.7,1.383-9.935S5.819,14.293,3.1,15.546s-3.336,5.7-1.383,9.935S7.459,32.127,10.176,30.875ZM32.091,20.8c3.687,0,6.676-4.657,6.676-10.4S35.777,0,32.091,0s-6.675,4.657-6.675,10.4S28.4,20.8,32.091,20.8Zm13.472-5.257c-2.718-1.254-6.5,1.161-8.457,5.394s-1.334,8.681,1.384,9.936,6.5-1.162,8.457-5.394S48.28,16.8,45.562,15.545Z" transform="translate(-0.579 0)" fill="#fff"/>
    </g>
  </g>
</svg>
