<svg xmlns="http://www.w3.org/2000/svg" width="21.018" height="11.636" viewBox="0 0 21.018 11.636">
  <g id="Arrow" transform="translate(-170.991 -509.026)">
    <path id="Subtraction_4" data-name="Subtraction 4" d="M21.5-1203.338a3.019,3.019,0,0,1-1.316-.3l-7.507-3.662a2.952,2.952,0,0,1-1.523-3.67,2.915,2.915,0,0,0,1.523,1.67l7.507,3.662a3.022,3.022,0,0,0,1.316.3,3.015,3.015,0,0,0,1.315-.3l7.508-3.662a2.916,2.916,0,0,0,1.523-1.67,2.952,2.952,0,0,1-1.523,3.67l-7.508,3.662A3.015,3.015,0,0,1,21.5-1203.338Z" transform="translate(160 1724)" fill="#565656"/>
    <path id="Subtraction_5" data-name="Subtraction 5" d="M21.5-1203.338a3.019,3.019,0,0,1-1.316-.3l-7.507-3.662a2.952,2.952,0,0,1-1.523-3.67,2.915,2.915,0,0,0,1.523,1.67l7.507,3.662a3.022,3.022,0,0,0,1.316.3,3.015,3.015,0,0,0,1.315-.3l7.508-3.662a2.916,2.916,0,0,0,1.523-1.67,2.952,2.952,0,0,1-1.523,3.67l-7.508,3.662A3.015,3.015,0,0,1,21.5-1203.338Z" transform="translate(160 1720)" fill="#565656"/>
  </g>
</svg>
