<svg xmlns="http://www.w3.org/2000/svg" xmlns:xlink="http://www.w3.org/1999/xlink" width="100" height="109.5" viewBox="0 0 100 109.5">
  <defs>
    <filter id="Path_32" x="0" y="0" width="100" height="109.5" filterUnits="userSpaceOnUse">
      <feOffset dy="14" input="SourceAlpha"/>
      <feGaussianBlur stdDeviation="1.5" result="blur"/>
      <feFlood flood-opacity="0.031"/>
      <feComposite operator="in" in2="blur"/>
      <feComposite in="SourceGraphic"/>
    </filter>
  </defs>
  <g id="PAw" transform="translate(4.401 -0.041)">
    <g transform="matrix(1, 0, 0, 1, -4.4, 0.04)" filter="url(#Path_32)">
      <g id="Path_32-2" data-name="Path 32" transform="translate(4.5 0)" fill="#ff4d8f">
        <path d="M45.5,0A45.5,45.5,0,1,1,0,45.5,45.5,45.5,0,0,1,45.5,0Z" stroke="none"/>
        <path d="M 45.5 4 C 39.89577102661133 4 34.46130752563477 5.096694946289063 29.34755325317383 7.259628295898438 C 24.40624237060547 9.349632263183594 19.96764373779297 12.34249114990234 16.15507507324219 16.15507507324219 C 12.34249114990234 19.96764373779297 9.349632263183594 24.40624237060547 7.259628295898438 29.34755325317383 C 5.096694946289063 34.46130752563477 4 39.89577102661133 4 45.5 C 4 51.10422897338867 5.096694946289063 56.53869247436523 7.259628295898438 61.65244674682617 C 9.349632263183594 66.59375 12.34249114990234 71.03235626220703 16.15507507324219 74.84492492675781 C 19.96764373779297 78.65750885009766 24.40624237060547 81.65036773681641 29.34755325317383 83.74037170410156 C 34.46130752563477 85.90330505371094 39.89577102661133 87 45.5 87 C 51.10422897338867 87 56.53869247436523 85.90330505371094 61.65244674682617 83.74037170410156 C 66.59375 81.65036773681641 71.03235626220703 78.65750885009766 74.84492492675781 74.84492492675781 C 78.65750885009766 71.03235626220703 81.65036773681641 66.59375 83.74037170410156 61.65244674682617 C 85.90330505371094 56.53869247436523 87 51.10422897338867 87 45.5 C 87 39.89577102661133 85.90330505371094 34.46130752563477 83.74037170410156 29.34755325317383 C 81.65036773681641 24.40624237060547 78.65750885009766 19.96764373779297 74.84492492675781 16.15507507324219 C 71.03235626220703 12.34249114990234 66.59375 9.349632263183594 61.65244674682617 7.259628295898438 C 56.53869247436523 5.096694946289063 51.10422897338867 4 45.5 4 M 45.5 0 C 70.62895202636719 0 91 20.37104797363281 91 45.5 C 91 70.62895202636719 70.62895202636719 91 45.5 91 C 20.37104797363281 91 0 70.62895202636719 0 45.5 C 0 20.37104797363281 20.37104797363281 0 45.5 0 Z" stroke="none" fill="rgba(168,251,234,0.44)"/>
      </g>
    </g>
    <g id="Group_17" data-name="Group 17" transform="translate(13.741 44.723) rotate(-45)">
      <rect id="Rectangle_11" data-name="Rectangle 11" width="45.142" height="11.991" rx="5.995" transform="translate(0 16.576)" fill="#fff"/>
      <rect id="Rectangle_12" data-name="Rectangle 12" width="45.142" height="11.991" rx="5.995" transform="translate(16.576 45.142) rotate(-90)" fill="#fff"/>
    </g>
  </g>
</svg>
