<svg xmlns="http://www.w3.org/2000/svg" width="25.523" height="25.78" viewBox="0 0 25.523 25.78">
  <g id="interface" transform="translate(0 0)">
    <path id="Path_23" data-name="Path 23" d="M15.986,138.741a7.1,7.1,0,0,0,0-2.14l1.775-1.393a1.082,1.082,0,0,0,.267-1.383l-1.146-1.985a1.08,1.08,0,0,0-1.332-.46l-2.093.843a6.777,6.777,0,0,0-1.847-1.069l-.318-2.234A1.079,1.079,0,0,0,10.231,128H7.941a1.079,1.079,0,0,0-1.063.923l-.318,2.235a6.8,6.8,0,0,0-1.839,1.067l-2.1-.843a1.081,1.081,0,0,0-1.331.46L.142,133.826a1.078,1.078,0,0,0,.27,1.383l1.774,1.384a7.1,7.1,0,0,0,0,2.14L.409,140.126a1.082,1.082,0,0,0-.267,1.383l1.145,1.985a1.082,1.082,0,0,0,1.332.46l2.093-.843a6.774,6.774,0,0,0,1.847,1.069l.318,2.234a1.081,1.081,0,0,0,1.064.922h2.29a1.079,1.079,0,0,0,1.063-.923l.318-2.235a6.8,6.8,0,0,0,1.839-1.067l2.1.843a1.077,1.077,0,0,0,1.331-.46l1.145-1.985a1.078,1.078,0,0,0-.27-1.383Zm-6.9,2.686a3.76,3.76,0,1,1,3.759-3.76A3.764,3.764,0,0,1,9.086,141.427Zm0,0" transform="translate(0 -121.555)" fill="#03ebbb"/>
    <path id="Path_24" data-name="Path 24" d="M311.147,5.875a4.073,4.073,0,0,0,.051-.5,4.076,4.076,0,0,0-.051-.5l.968-.732a.538.538,0,0,0,.141-.7l-.869-1.5a.538.538,0,0,0-.674-.227l-1.114.469a3.99,3.99,0,0,0-.88-.523L308.572.471a.538.538,0,0,0-.533-.47H306.3a.537.537,0,0,0-.533.47l-.148,1.183a4.008,4.008,0,0,0-.88.523l-1.114-.469a.537.537,0,0,0-.675.227l-.868,1.5a.538.538,0,0,0,.141.7l.968.732a3.854,3.854,0,0,0-.052.5,4.067,4.067,0,0,0,.05.5l-.968.733a.537.537,0,0,0-.141.7l.869,1.5a.537.537,0,0,0,.674.227l1.114-.47a3.992,3.992,0,0,0,.88.523l.148,1.183a.538.538,0,0,0,.533.471h1.737a.537.537,0,0,0,.533-.47l.148-1.183a4.014,4.014,0,0,0,.88-.523l1.114.469a.537.537,0,0,0,.675-.227l.868-1.5a.537.537,0,0,0-.141-.7ZM307.17,7.519a2.148,2.148,0,1,1,2.148-2.148A2.148,2.148,0,0,1,307.17,7.519Zm0,0" transform="translate(-286.805)" fill="#03ebbb"/>
  </g>
</svg>
